<svg width="132" height="15" viewBox="0 0 132 15" fill="none" xmlns="http://www.w3.org/2000/svg">
<path d="M1.4608 6.02111H0.0932423C0.0310808 6.02111 0 5.96179 0 5.93213V4.38976C0 4.33043 0.0310808 4.30077 0.0932423 4.30077C0.745938 4.27111 1.21215 4.15247 1.55404 3.94484C1.98917 3.67789 2.29998 3.35162 2.51754 2.90671C2.73511 2.49145 2.95267 1.74993 3.17024 0.741451C3.17024 0.71179 3.2324 0.682129 3.26348 0.682129H5.53237C5.59454 0.682129 5.62562 0.71179 5.62562 0.771112V4.21179C5.62562 4.27111 5.6567 4.30077 5.71886 4.30077H8.67153C8.73369 4.30077 8.76477 4.33043 8.76477 4.38976V5.93213C8.76477 5.99145 8.73369 6.02111 8.67153 6.02111H5.71886C5.6567 6.02111 5.62562 6.05077 5.62562 6.1101V10.7965C5.62562 11.3008 5.68778 11.6567 5.78102 11.8347C5.93643 12.072 6.15399 12.1906 6.49588 12.1906C6.86885 12.1906 7.11749 12.0423 7.2729 11.7457C7.39722 11.4491 7.49046 10.9152 7.49046 10.1143V9.34315C7.49046 9.28382 7.52154 9.25416 7.5837 9.25416H9.16882C9.23099 9.25416 9.26207 9.28382 9.26207 9.34315V10.4999C9.26207 11.3601 9.1999 11.9533 9.0445 12.3092C8.57829 13.466 7.39722 14.0296 5.50129 14.0296C4.00942 14.0296 2.92159 13.644 2.23781 12.8728C1.95809 12.5762 1.80268 12.2796 1.70944 11.9533C1.58512 11.627 1.55404 11.0635 1.55404 10.2923V6.1101C1.55404 6.05077 1.52296 6.02111 1.4608 6.02111Z" fill="white"/>
<path d="M21.3525 10.3811C21.4147 10.3811 21.4457 10.4405 21.4457 10.4998C21.2903 11.093 21.1039 11.5676 20.9174 11.8939C20.6998 12.2498 20.4512 12.5761 20.1093 12.8727C19.612 13.2879 18.8971 13.5845 18.0269 13.7922C17.4052 13.9405 16.7836 13.9998 16.0999 13.9998C14.3593 13.9998 12.9607 13.5845 11.935 12.754C10.785 11.8345 10.2256 10.5888 10.2256 8.95741C10.2256 7.32606 10.8161 6.05063 11.9972 5.13114C13.0539 4.33029 14.3904 3.91504 16.0377 3.91504C18.1512 3.91504 19.6741 4.56758 20.6066 5.90233C21.0106 6.46589 21.2282 7.05911 21.3214 7.65233C21.4147 8.1269 21.4457 8.72012 21.4457 9.37267C21.4457 9.43199 21.4147 9.46165 21.3525 9.46165H14.7323C14.6701 9.46165 14.6391 9.49131 14.6391 9.55063C14.6701 10.3811 14.7945 10.9744 15.0431 11.3006C15.4161 11.8345 15.9755 12.0718 16.7215 12.0718C17.4052 12.0718 17.9647 11.8345 18.3377 11.36C18.5242 11.1523 18.6485 10.8261 18.7728 10.3811C18.7728 10.3515 18.835 10.3218 18.866 10.3218H21.3525V10.3811ZM14.7323 7.77097H17.6539C17.7161 7.77097 17.7471 7.74131 17.7471 7.68199C17.7161 7.05911 17.6228 6.58453 17.4363 6.31758C17.1566 5.90233 16.7525 5.72436 16.2242 5.72436C15.9755 5.72436 15.7269 5.78368 15.4782 5.90233C15.2296 6.02097 15.0742 6.16928 14.9499 6.3769C14.7945 6.61419 14.6701 7.05911 14.6391 7.71165C14.6391 7.71165 14.7012 7.77097 14.7323 7.77097Z" fill="white"/>
<path d="M28.1902 4.98308C28.1902 5.07207 28.2835 5.10173 28.3456 5.04241C28.7808 4.62715 29.1848 4.3602 29.5267 4.2119C29.9308 4.06359 30.3659 3.97461 30.801 3.97461C31.4537 3.97461 32.0132 4.12291 32.4483 4.41952C32.728 4.62715 32.9456 4.86444 33.1321 5.19071C33.2875 5.51698 33.3807 5.87292 33.3807 6.22885C33.3807 6.79241 33.2253 7.26698 32.8834 7.62292C32.5105 8.00851 32.0132 8.21614 31.3605 8.21614C30.8632 8.21614 30.4591 8.06783 30.1483 7.80088C29.8064 7.53393 29.651 7.178 29.651 6.76275C29.651 6.46614 29.7132 6.22885 29.8686 6.05088C30.024 5.84325 30.2726 5.66529 30.6145 5.48732C30.397 5.428 30.2105 5.39834 30.0862 5.39834C29.8375 5.39834 29.5889 5.48732 29.3091 5.63563C29.0294 5.78393 28.8119 5.9619 28.6564 6.19919C28.3146 6.67376 28.1592 7.32631 28.1592 8.18648V10.945C28.1592 11.3305 28.2213 11.5678 28.3767 11.6865C28.501 11.8051 28.8119 11.8644 29.247 11.8644H29.8997C29.9618 11.8644 29.9929 11.8941 29.9929 11.9534V13.5255C29.9929 13.5848 29.9618 13.6144 29.8997 13.6144H22.6889C22.6268 13.6144 22.5957 13.5848 22.5957 13.5255V11.8644H22.9998C23.4349 11.8644 23.7457 11.8051 23.87 11.6865C23.9943 11.5678 24.0876 11.3305 24.0876 10.945V6.97037C24.0876 6.58478 24.0254 6.31783 23.87 6.19919C23.7457 6.08054 23.4349 6.02122 22.9998 6.02122H22.5957V4.3602C22.5957 4.30088 22.6268 4.27122 22.6889 4.27122H28.097C28.1592 4.27122 28.1902 4.30088 28.1902 4.3602V4.98308Z" fill="white"/>
<path d="M39.628 4.98308C39.628 5.07207 39.7212 5.10173 39.7834 5.04241C40.2185 4.62715 40.6226 4.3602 40.9645 4.2119C41.3685 4.06359 41.8036 3.97461 42.2388 3.97461C42.8915 3.97461 43.4509 4.12291 43.886 4.41952C44.1658 4.62715 44.3833 4.86444 44.5698 5.19071C44.7252 5.51698 44.8185 5.87292 44.8185 6.22885C44.8185 6.79241 44.6631 7.26698 44.3212 7.62292C43.9482 8.00851 43.4509 8.21614 42.7982 8.21614C42.3009 8.21614 41.8969 8.06783 41.5861 7.80088C41.2442 7.53393 41.0888 7.178 41.0888 6.76275C41.0888 6.46614 41.1509 6.22885 41.3063 6.05088C41.4617 5.84325 41.7104 5.66529 42.0523 5.48732C41.8347 5.428 41.6482 5.39834 41.5239 5.39834C41.2753 5.39834 41.0266 5.48732 40.7469 5.63563C40.4672 5.78393 40.2496 5.9619 40.0942 6.19919C39.7523 6.67376 39.5969 7.32631 39.5969 8.18648V10.945C39.5969 11.3305 39.6591 11.5678 39.8145 11.6865C39.9388 11.8051 40.2496 11.8644 40.6847 11.8644H41.3374C41.3996 11.8644 41.4307 11.8941 41.4307 11.9534V13.5255C41.4307 13.5848 41.3996 13.6144 41.3374 13.6144H34.1267C34.0645 13.6144 34.0334 13.5848 34.0334 13.5255V11.8644H34.4375C34.8726 11.8644 35.1834 11.8051 35.3078 11.6865C35.4321 11.5678 35.5253 11.3305 35.5253 10.945V6.97037C35.5253 6.58478 35.4632 6.31783 35.3078 6.19919C35.1834 6.08054 34.8726 6.02122 34.4375 6.02122H34.0334V4.3602C34.0334 4.30088 34.0645 4.27122 34.1267 4.27122H39.5347C39.5969 4.27122 39.628 4.30088 39.628 4.3602V4.98308Z" fill="white"/>
<path d="M52.4333 12.7246C52.4022 12.6949 52.34 12.6949 52.3089 12.7246C51.9049 13.1102 51.5319 13.3771 51.1279 13.5255C50.3819 13.8221 49.5428 13.9704 48.6414 13.9704C47.5225 13.9704 46.6833 13.7331 46.0617 13.2288C45.5023 12.7839 45.2225 12.161 45.2225 11.3305C45.2225 10.3221 45.6577 9.58054 46.559 9.13562C47.0874 8.86868 47.9266 8.66105 49.0455 8.51274C50.2265 8.36444 51.0036 8.15681 51.3765 7.88986C51.7184 7.65257 51.9049 7.29664 51.9049 6.82207C51.9049 6.34749 51.7184 5.9619 51.3765 5.66529C51.0346 5.36868 50.5373 5.22037 49.9468 5.22037C49.5738 5.22037 49.1698 5.30935 48.7968 5.45766C48.7347 5.48732 48.7347 5.60597 48.7968 5.63563C49.1076 5.75427 49.3252 5.87291 49.4495 6.05088C49.5428 6.16952 49.6049 6.28817 49.6671 6.43647C49.8225 6.97037 49.5738 7.59325 49.0765 7.88986C48.7347 8.09749 48.2995 8.21613 47.7401 8.21613C47.0874 8.21613 46.5901 8.06783 46.2171 7.77122C45.8441 7.47461 45.6577 7.05935 45.6577 6.52546C45.6577 6.1102 45.8131 5.72461 46.0928 5.36868C46.4658 4.92376 47.0563 4.56783 47.8955 4.33054C48.7036 4.09325 49.6982 3.97461 50.8792 3.97461C51.9049 3.97461 52.8062 4.06359 53.6143 4.24156C54.4224 4.41952 55.013 4.65681 55.3859 4.98308C55.6346 5.19071 55.8211 5.39834 55.9143 5.63563C56.0697 6.02122 56.1629 6.61444 56.1629 7.41529V11.0043C56.1629 11.2119 56.194 11.3899 56.2562 11.4492C56.3184 11.5382 56.4427 11.5678 56.5981 11.5678C56.7846 11.5678 56.9089 11.5382 56.9711 11.4492C57.0332 11.3602 57.0643 11.2119 57.0643 10.9746V9.93647C57.0643 9.87715 57.0954 9.84749 57.1575 9.84749H58.3697C58.4318 9.84749 58.4629 9.87715 58.4629 9.93647V11.0636C58.4629 11.6271 58.4318 12.0424 58.3386 12.339C58.2454 12.6356 58.09 12.9026 57.8413 13.1399C57.3129 13.6738 56.4738 13.9407 55.3549 13.9407C54.64 13.9407 54.0495 13.8517 53.6454 13.6441C53.2103 13.4958 52.8062 13.1695 52.4333 12.7246ZM51.9049 9.43223C51.9049 9.37291 51.8427 9.31359 51.7806 9.34325C51.3454 9.55088 50.7549 9.78817 49.9779 10.1144C49.4806 10.3221 49.2009 10.589 49.2009 10.9746C49.2009 11.2416 49.3252 11.4788 49.5428 11.6568C49.7914 11.8348 50.0711 11.9238 50.4441 11.9238C50.9103 11.9238 51.2522 11.8051 51.5319 11.5382C51.7806 11.3009 51.9049 10.9449 51.9049 10.5V9.43223Z" fill="white"/>
<path d="M59.9237 6.02111H58.5562C58.494 6.02111 58.463 5.99145 58.463 5.93213V4.38976C58.463 4.33043 58.494 4.30077 58.5562 4.30077C59.2089 4.27111 59.6751 4.15247 60.017 3.94484C60.4521 3.67789 60.7629 3.35162 60.9805 2.90671C61.1981 2.49145 61.4156 1.74993 61.6332 0.741451C61.6332 0.71179 61.6953 0.682129 61.7264 0.682129H63.9953C64.0575 0.682129 64.0886 0.71179 64.0886 0.771112V4.21179C64.0886 4.27111 64.1196 4.30077 64.1818 4.30077H67.1345C67.1966 4.30077 67.2277 4.33043 67.2277 4.38976V5.93213C67.2277 5.99145 67.1966 6.02111 67.1345 6.02111H64.1818C64.1196 6.02111 64.0886 6.05077 64.0886 6.1101V10.7965C64.0886 11.3008 64.1507 11.6567 64.244 11.8347C64.3994 12.072 64.6169 12.1906 64.9588 12.1906C65.3318 12.1906 65.5804 12.0423 65.7358 11.7457C65.8602 11.4491 65.9534 10.9152 65.9534 10.1143V9.34315C65.9534 9.28382 65.9845 9.25416 66.0467 9.25416H67.6318C67.6939 9.25416 67.725 9.28382 67.725 9.34315V10.4999C67.725 11.3601 67.6629 11.9533 67.5074 12.3092C67.0412 13.466 65.8602 14.0296 63.9642 14.0296C62.4724 14.0296 61.3845 13.644 60.7008 12.8728C60.421 12.5762 60.2656 12.2796 60.1724 11.9533C60.0792 11.627 60.0481 11.0931 60.0481 10.322V6.1101C60.017 6.05077 59.9548 6.02111 59.9237 6.02111Z" fill="white"/>
<path d="M75.806 11.8941V13.5551C75.806 13.6144 75.7749 13.6441 75.7127 13.6441H68.7817C68.7196 13.6441 68.6885 13.6144 68.6885 13.5551V11.8941H69.1236C69.5587 11.8941 69.8074 11.8347 69.9317 11.7161C70.056 11.5975 70.1182 11.3602 70.1182 10.9746V6.97034C70.1182 6.58475 70.056 6.34746 69.9317 6.22881C69.8074 6.11017 69.5277 6.05085 69.1236 6.05085H68.6885V4.38983C68.6885 4.33051 68.7196 4.30085 68.7817 4.30085H74.2209C74.283 4.30085 74.3141 4.33051 74.3141 4.38983V10.9449C74.3141 11.3305 74.3763 11.5678 74.5317 11.6864C74.656 11.8051 74.9668 11.8644 75.4019 11.8644H75.806V11.8941ZM71.983 0C72.6047 0 73.102 0.237288 73.506 0.741525C73.6925 0.949153 73.7857 1.2161 73.8168 1.48305C73.9101 2.22458 73.6614 2.78814 73.0398 3.23305C72.8222 3.41102 72.5425 3.5 72.2317 3.52966C71.579 3.58898 71.0506 3.44068 70.6155 3.02542C70.2736 2.66949 70.0871 2.25424 70.0871 1.75C70.0871 1.24576 70.2736 0.830509 70.6155 0.504237C71.0195 0.177966 71.4858 0 71.983 0Z" fill="white"/>
<path d="M83.5762 5.96167V4.38964C83.5762 4.33032 83.6073 4.30066 83.6695 4.30066H88.2383C88.3005 4.30066 88.3316 4.33032 88.3316 4.38964V5.96167C88.3316 6.021 88.3005 6.05066 88.2383 6.05066C87.8032 6.08032 87.4924 6.13964 87.3059 6.28795C87.0883 6.43625 86.9019 6.7032 86.7465 7.08879L84.4154 13.5549C84.4154 13.5846 84.3532 13.6142 84.3221 13.6142H79.5668C79.5357 13.6142 79.5046 13.5846 79.4735 13.5549L77.1425 6.97015C77.0182 6.58455 76.8628 6.31761 76.7384 6.19896C76.6141 6.08032 76.3965 6.021 76.1168 6.021H75.7128V4.35998C75.7128 4.30066 75.7438 4.271 75.806 4.271H82.3951C82.4573 4.271 82.4884 4.30066 82.4884 4.35998V5.93201C82.4884 5.99133 82.4573 6.021 82.3951 6.021C81.96 6.021 81.6803 6.05066 81.556 6.10998C81.4006 6.1693 81.3384 6.31761 81.3384 6.49557C81.3384 6.64388 81.3695 6.79218 81.4316 6.94049L82.9235 10.8854C82.9546 10.9744 83.0789 10.9744 83.11 10.8854L84.5708 6.94049C84.6019 6.82184 84.633 6.73286 84.633 6.61422C84.633 6.40659 84.5397 6.25828 84.3843 6.1693C84.2289 6.08032 83.9803 6.021 83.6384 5.99133C83.6073 6.05066 83.5762 5.99133 83.5762 5.96167Z" fill="white"/>
<path d="M95.9774 11.8941V13.5551C95.9774 13.6144 95.9463 13.6441 95.8842 13.6441H88.9532C88.891 13.6441 88.8599 13.6144 88.8599 13.5551V11.8941H89.2951C89.7302 11.8941 89.9788 11.8347 90.1032 11.7161C90.2275 11.5975 90.2896 11.3602 90.2896 10.9746V6.97034C90.2896 6.58475 90.2275 6.34746 90.1032 6.22881C89.9788 6.11017 89.6991 6.05085 89.2951 6.05085H88.891V4.38983C88.891 4.33051 88.9221 4.30085 88.9842 4.30085H94.4234C94.4855 4.30085 94.5166 4.33051 94.5166 4.38983V10.9449C94.5166 11.3305 94.5788 11.5678 94.7342 11.6864C94.8585 11.8051 95.1693 11.8644 95.6045 11.8644H95.9774V11.8941ZM92.1856 0C92.8072 0 93.3045 0.237288 93.7085 0.741525C93.895 0.949153 93.9882 1.2161 94.0193 1.48305C94.1126 2.22458 93.8639 2.78814 93.2423 3.23305C93.0247 3.41102 92.745 3.5 92.4342 3.52966C91.7815 3.58898 91.2531 3.44068 90.818 3.02542C90.4761 2.66949 90.2896 2.25424 90.2896 1.75C90.2896 1.24576 90.4761 0.830509 90.818 0.504237C91.2221 0.177966 91.6572 0 92.1856 0Z" fill="white"/>
<path d="M98.495 13.7627H97.0963C97.0342 13.7627 97.0031 13.7331 97.0031 13.6738V10.4407C97.0031 10.3814 97.0342 10.3517 97.0963 10.3517H98.8679C98.899 10.3517 98.9301 10.3814 98.9612 10.411C99.1787 10.856 99.3963 11.1822 99.6139 11.3899C99.8314 11.5975 100.142 11.7755 100.515 11.9238C100.981 12.0721 101.479 12.1611 102.007 12.1611C103.033 12.1611 103.53 11.9238 103.53 11.4195C103.53 11.2119 103.437 11.0339 103.281 10.8856C103.126 10.767 102.846 10.6483 102.473 10.5594C100.981 10.2034 99.7071 9.81783 98.7125 9.4619C97.4382 9.01698 96.7855 8.18647 96.7855 7.05936C96.7855 6.37715 97.0342 5.78393 97.5004 5.30936C98.3706 4.41952 99.7693 3.97461 101.696 3.97461C102.38 3.97461 103.002 4.03393 103.468 4.12291C103.934 4.2119 104.556 4.38986 105.302 4.65681C105.333 4.68647 105.395 4.65681 105.426 4.62715L105.644 4.18224C105.675 4.15258 105.706 4.12291 105.737 4.12291H107.198C107.26 4.12291 107.291 4.15258 107.291 4.2119V6.97037C107.291 7.02969 107.26 7.05936 107.198 7.05936H105.644C105.612 7.05936 105.581 7.05936 105.581 7.02969C105.302 6.67376 105.022 6.40681 104.804 6.25851C104.556 6.08054 104.245 5.9619 103.841 5.81359C103.406 5.69495 103.002 5.60597 102.567 5.60597C101.603 5.60597 101.106 5.87291 101.106 6.37715C101.106 6.58478 101.199 6.76275 101.354 6.85173C101.479 6.94071 101.634 7.02969 101.821 7.08902C102.007 7.14834 102.535 7.29664 103.468 7.53393C104.96 7.94919 105.892 8.2458 106.265 8.42376C107.26 8.95766 107.788 9.69919 107.788 10.7077C107.788 11.8051 107.291 12.6356 106.265 13.1992C105.426 13.6738 104.369 13.911 103.095 13.911C101.541 13.911 100.173 13.6144 98.9923 13.0212C98.9612 12.9916 98.899 13.0212 98.8679 13.0509L98.5571 13.6441C98.5571 13.7331 98.526 13.7627 98.495 13.7627Z" fill="white"/>
<path d="M109.995 6.02111H108.627C108.565 6.02111 108.534 5.99145 108.534 5.93213V4.38976C108.534 4.33043 108.565 4.30077 108.627 4.30077C109.28 4.27111 109.746 4.15247 110.088 3.94484C110.523 3.67789 110.834 3.35162 111.052 2.90671C111.269 2.49145 111.487 1.74993 111.704 0.741451C111.704 0.71179 111.766 0.682129 111.798 0.682129H114.066C114.129 0.682129 114.16 0.71179 114.16 0.771112V4.21179C114.16 4.27111 114.191 4.30077 114.253 4.30077H117.206C117.268 4.30077 117.299 4.33043 117.299 4.38976V5.93213C117.299 5.99145 117.268 6.02111 117.206 6.02111H114.253C114.191 6.02111 114.16 6.05077 114.16 6.1101V10.7965C114.16 11.3008 114.222 11.6567 114.315 11.8347C114.47 12.072 114.688 12.1906 115.03 12.1906C115.403 12.1906 115.652 12.0423 115.807 11.7457C115.931 11.4491 116.024 10.9152 116.024 10.1143V9.34315C116.024 9.28382 116.056 9.25416 116.118 9.25416H117.703C117.765 9.25416 117.796 9.28382 117.796 9.34315V10.4999C117.796 11.3601 117.734 11.9533 117.579 12.3092C117.112 13.466 115.931 14.0296 114.035 14.0296C112.543 14.0296 111.456 13.644 110.772 12.8728C110.492 12.5762 110.337 12.2796 110.243 11.9533C110.15 11.627 110.119 11.0931 110.119 10.322V6.1101C110.088 6.05077 110.057 6.02111 109.995 6.02111Z" fill="white"/>
<path d="M125.97 12.7246C125.939 12.6949 125.877 12.6949 125.846 12.7246C125.442 13.1102 125.069 13.3771 124.665 13.5255C123.919 13.8221 123.08 13.9704 122.179 13.9704C121.06 13.9704 120.22 13.7331 119.599 13.2288C119.039 12.7839 118.76 12.161 118.76 11.3305C118.76 10.3221 119.195 9.58054 120.096 9.13562C120.624 8.86868 121.464 8.66105 122.583 8.51274C123.764 8.36444 124.541 8.15681 124.914 7.88986C125.256 7.65257 125.442 7.29664 125.442 6.82207C125.442 6.34749 125.256 5.9619 124.914 5.66529C124.572 5.36868 124.074 5.22037 123.484 5.22037C123.111 5.22037 122.707 5.30935 122.334 5.45766C122.272 5.48732 122.272 5.60597 122.334 5.63563C122.645 5.75427 122.862 5.87291 122.987 6.05088C123.08 6.16952 123.142 6.28817 123.204 6.43647C123.36 6.97037 123.111 7.59325 122.614 7.88986C122.272 8.09749 121.837 8.21613 121.277 8.21613C120.624 8.21613 120.127 8.06783 119.754 7.77122C119.381 7.47461 119.195 7.05935 119.195 6.52546C119.195 6.1102 119.35 5.72461 119.63 5.36868C120.003 4.92376 120.593 4.56783 121.433 4.33054C122.241 4.09325 123.235 3.97461 124.416 3.97461C125.442 3.97461 126.343 4.06359 127.151 4.24156C127.96 4.41952 128.55 4.65681 128.923 4.98308C129.172 5.19071 129.358 5.39834 129.451 5.63563C129.607 6.02122 129.7 6.61444 129.7 7.41529V11.0043C129.7 11.2119 129.731 11.3899 129.793 11.4492C129.855 11.5382 129.98 11.5678 130.135 11.5678C130.322 11.5678 130.446 11.5382 130.508 11.4492C130.57 11.3602 130.601 11.2119 130.601 10.9746V9.93647C130.601 9.87715 130.632 9.84749 130.695 9.84749H131.907C131.969 9.84749 132 9.87715 132 9.93647V11.0636C132 11.6271 131.969 12.0424 131.876 12.339C131.782 12.6356 131.627 12.9026 131.378 13.1399C130.85 13.6738 130.011 13.9407 128.892 13.9407C128.177 13.9407 127.587 13.8517 127.183 13.6441C126.747 13.4958 126.343 13.1695 125.97 12.7246ZM125.442 9.43223C125.442 9.37291 125.38 9.31359 125.318 9.34325C124.883 9.55088 124.292 9.78817 123.515 10.1144C123.018 10.3221 122.738 10.589 122.738 10.9746C122.738 11.2416 122.862 11.4788 123.08 11.6568C123.329 11.8348 123.608 11.9238 123.981 11.9238C124.447 11.9238 124.789 11.8051 125.069 11.5382C125.318 11.3009 125.442 10.9449 125.442 10.5V9.43223Z" fill="white"/>
</svg>
